Motion_pu07
version=1
nRows=16
nColumns=43
inDegrees=yes
endheader
time	pelvis_tilt	pelvis_list	pelvis_rotation	pelvis_tx	pelvis_ty	pelvis_tz	hip_flexion_r	hip_adduction_r	hip_rotation_r	knee_angle_r	ankle_angle_r	subtalar_angle_r	mtp_angle_r	hip_flexion_l	hip_adduction_l	hip_rotation_l	knee_angle_l	ankle_angle_l	subtalar_angle_l	mtp_angle_l	lumbar_extension	lumbar_bending	lumbar_rotation	neck_flexion	neck_lateral_bending	neck_rotation	arm_flex_r	arm_add_r	arm_rot_r	elbow_flex_r	pro_sup_r	wrist_flex_r	wrist_dev_r	hand_finger_flex_r	arm_flex_l	arm_add_l	arm_rot_l	elbow_flex_l	pro_sup_l	wrist_flex_l	wrist_dev_l	hand_finger_flex_l
      1.32500000	     -3.28477254	    -36.56930973	    -95.24288194	     -0.01533894	      1.11811559	      1.28192883	     -2.85019511	    -13.43984409	     -9.36185187	   -100.39859338	    -15.61414070	    -21.21569646	    -16.84576321	     -3.67612008	    -21.81714048	    -16.29324040	   -100.47867845	    -19.03437062	    -20.01215844	    -10.36162839	      7.08138217	      1.90966544	      5.29449836	     -5.38538193	      5.99123932	     -7.43504533	   -107.60065775	   -153.97163675	   -183.79941185	     82.14377773	    155.53392803	     12.63041985	     -3.27055823	     70.04130468	     79.05617900	     -7.58044776	      0.21591799	     75.50537125	    169.75433451	      9.96089743	      3.96338104	     70.69585279
      1.32750000	     -2.98244792	    -36.81229819	    -94.68023236	     -0.01581667	      1.12274283	      1.28073111	     -3.28411466	    -13.48931604	     -9.85429067	    -99.81840283	    -15.82360228	    -21.42656762	    -17.03811922	     -3.56870180	    -21.50381486	    -15.85166770	   -100.04932866	    -19.05402751	    -20.11792621	    -10.73403369	      7.07247001	      1.14324537	      5.22349334	     -6.10186875	      7.29711254	     -7.24374898	   -109.38737847	   -153.44891044	   -184.98406402	     83.30773300	    155.31162983	     12.19037246	     -3.36197476	     69.28106448	     78.34500217	     -6.94639014	      0.27208819	     76.32358807	    171.70828851	     10.60051756	      3.21030842	     69.83652031
      1.33000000	     -3.01182342	    -37.03368945	    -94.75267789	     -0.01569883	      1.12510183	      1.27872958	     -3.16156363	    -13.57407286	     -9.87494739	    -99.88526180	    -15.77416592	    -21.44604089	    -17.04235453	     -3.42296186	    -21.45477428	    -15.71523883	   -100.11407216	    -18.98198258	    -20.15778679	    -10.75256771	      6.76496239	      1.16406371	      5.29162855	     -5.98639888	      7.13337492	     -7.23046690	   -109.91928850	   -153.36563169	   -185.15753235	     83.83351515	    155.29896609	     12.17989276	     -3.37282975	     69.24298669	     77.88139735	     -7.03320307	      0.27900420	     76.87834584	    171.72798376	     10.57173896	      3.10978157	     69.78512747
      1.33250000	     -3.00847618	    -37.25149462	    -94.76685090	     -0.01560343	      1.12773973	      1.27684907	     -3.09860620	    -13.56504239	     -9.83821342	    -99.87147585	    -15.73272375	    -21.45505177	    -17.04694697	     -3.28944661	    -21.41041116	    -15.63275305	   -100.12742285	    -18.89183341	    -20.19363765	    -10.76846299	      6.49942132	      1.13996292	      5.31438577	     -5.97855607	      7.04654336	     -7.21876583	   -110.53180279	   -153.31174787	   -185.40783721	     84.37605041	    155.28780464	     12.15708407	     -3.37881847	     69.19356474	     77.32493694	     -7.10208697	      0.21956632	     77.47715699	    171.75898352	     10.53293741	      3.02605882	     69.73001842
      1.33500000	     -3.01650586	    -37.46179109	    -94.78466676	     -0.01549777	      1.13047514	      1.27507314	     -3.04183636	    -13.57241807	     -9.83958456	    -99.82913532	    -15.70279038	    -21.45072792	    -17.05085278	     -3.18560605	    -21.36965538	    -15.55289647	   -100.10319699	    -18.79057153	    -20.22927665	    -10.78052813	      6.26538406	      1.13063772	      5.35179263	     -6.03343304	      7.01249250	     -7.20304906	   -111.17191692	   -153.24116119	   -185.67053756	     84.90642041	    155.27506155	     12.12919318	     -3.38559622	     69.13522242	     76.76048798	     -7.15722711	      0.17508762	     78.04264388	    171.79871667	     10.49743135	      2.95104545	     69.67290941
      1.33750000	     -3.02414528	    -37.67279070	    -94.79842116	     -0.01541967	      1.13325150	      1.27332717	     -2.99058152	    -13.57541748	     -9.84496231	    -99.77792408	    -15.67578857	    -21.44345067	    -17.05247161	     -3.08763624	    -21.33697431	    -15.47789179	   -100.07796519	    -18.68020106	    -20.26478751	    -10.78765137	      6.03589128	      1.11564484	      5.39458446	     -6.12148465	      7.00409346	     -7.18311560	   -111.82741951	   -153.16494764	   -185.95370298	     85.44495164	    155.25546132	     12.09883018	     -3.39780579	     69.07020728	     76.19987663	     -7.20351143	      0.14205738	     78.58602721	    171.84474983	     10.46016678	      2.88531362	     69.61482441
      1.34000000	     -3.04690104	    -37.88187746	    -94.82950401	     -0.01538661	      1.13597602	      1.27163124	     -2.92757478	    -13.58626108	     -9.86149881	    -99.73581470	    -15.64803037	    -21.43754684	    -17.05088624	     -2.99109994	    -21.29808085	    -15.40327122	   -100.07018584	    -18.57108292	    -20.29769187	    -10.78903105	      5.79721144	      1.10020694	      5.43682064	     -6.21851776	      7.00068435	     -7.16086432	   -112.47036217	   -153.07976242	   -186.23306832	     85.99148063	    155.22925998	     12.06915673	     -3.41690078	     69.00728920	     75.67752904	     -7.24942412	      0.12344091	     79.09821623	    171.88737433	     10.41872644	      2.83083537	     69.56319223
      1.34250000	     -3.05732267	    -38.08942854	    -94.84322887	     -0.01536473	      1.13877318	      1.26986613	     -2.88048248	    -13.57852545	     -9.86844444	    -99.68198711	    -15.61706628	    -21.43550744	    -17.04699324	     -2.88999832	    -21.26733077	    -15.31760067	   -100.03097511	    -18.45279350	    -20.32744579	    -10.78679010	      5.56416319	      1.07207329	      5.49470102	     -6.31150631	      7.02451175	     -7.13978545	   -113.14861658	   -152.98385558	   -186.55851583	     86.53847490	    155.19064788	     12.04213969	     -3.44248016	     68.93564616	     75.12077283	     -7.27333188	      0.11363143	     79.65324246	    171.93565395	     10.36794902	      2.77838324	     69.50729784
      1.34500000	     -3.07977541	    -38.29104633	    -94.87141939	     -0.01533560	      1.14152341	      1.26820000	     -2.82337409	    -13.58871507	     -9.88776296	    -99.64697199	    -15.58553831	    -21.43833356	    -17.04153210	     -2.79334771	    -21.22770289	    -15.23974813	   -100.02330043	    -18.35023490	    -20.34790828	    -10.78216528	      5.32942029	      1.05216207	      5.54048280	     -6.39945292	      7.06064411	     -7.12174460	   -113.79642043	   -152.88942609	   -186.85745262	     87.08845189	    155.14472993	     12.01869048	     -3.47417745	     68.86811838	     74.59683972	     -7.30608442	      0.11057844	     80.14187711	    171.98220707	     10.32126366	      2.73660340	     69.45687941
      1.34750000	     -3.06533479	    -38.49717505	    -94.85264651	     -0.01493223	      1.14372709	      1.26670544	     -2.74134485	    -13.64061852	     -9.86377521	    -99.70628221	    -15.56292082	    -21.45065978	    -17.03787245	     -2.67431140	    -21.26327737	    -15.21224138	   -100.06949531	    -18.30947297	    -20.35868867	    -10.77827092	      5.12278601	      1.11838152	      5.56618994	     -6.42277354	      7.07719102	     -7.11532092	   -114.16318111	   -152.86306065	   -186.91936604	     87.32132715	    155.12464660	     12.01017636	     -3.49011583	     68.84962777	     74.20613591	     -7.41740887	      0.10831878	     80.17893397	    172.00050432	     10.32998578	      2.73330810	     69.44738643
      1.35000000	     -3.14083474	    -38.70908329	    -94.95102974	     -0.01525857	      1.14669708	      1.26446706	     -2.65645115	    -13.60318238	     -9.91456202	    -99.63422794	    -15.51381036	    -21.45392710	    -17.02816363	     -2.55932870	    -21.16450190	    -15.04711682	   -100.04796413	    -18.18638511	    -20.38195448	    -10.76756361	      4.77699944	      1.03502821	      5.68119759	     -6.56799458	      7.02736784	     -7.07794874	   -115.01192276	   -152.67248540	   -187.46523363	     88.13389480	    155.06864383	     11.97002222	     -3.53164246	     68.77987435	     73.62071503	     -7.35761504	      0.12400909	     81.18367052	    172.01030221	     10.20212038	      2.66669837	     69.40704050
      1.35250000	     -3.12579272	    -38.88459296	    -94.92405824	     -0.01532005	      1.14990430	      1.26284258	     -2.65810309	    -13.53252716	     -9.92143376	    -99.47536976	    -15.47787631	    -21.46695225	    -17.02239940	     -2.47667518	    -21.11945926	    -14.94729299	    -99.89120132	    -18.09899426	    -20.35956511	    -10.76176607	      4.61444042	      0.95190283	      5.74323729	     -6.62085068	      7.20908841	     -7.07913111	   -115.85431442	   -152.54315056	   -187.88640453	     88.76848898	    154.97349370	     11.95280054	     -3.59000361	     68.68310377	     72.96408754	     -7.34192548	      0.09492367	     81.84816924	    172.08103366	     10.12551966	      2.63303989	     69.33896109
      1.35500000	     -3.13366473	    -39.06741645	    -94.92769190	     -0.01534529	      1.15269840	      1.26120687	     -2.61736561	    -13.55325463	     -9.98371915	    -99.40786570	    -15.45563659	    -21.48045106	    -17.02032545	     -2.37830825	    -21.08729588	    -14.85253926	    -99.83559652	    -18.04632859	    -20.32802679	    -10.75883873	      4.40622731	      0.89616065	      5.81770108	     -6.72383486	      7.36727098	     -7.07280718	   -116.56685415	   -152.39365549	   -188.24638576	     89.32371418	    154.88469765	     11.94047670	     -3.64474532	     68.58845573	     72.45101263	     -7.32237096	      0.12378719	     82.34471540	    172.15514374	     10.07757795	      2.60039326	     69.27095621
      1.35750000	     -3.12180801	    -39.25136623	    -94.92042664	     -0.01512051	      1.15474820	      1.25991279	     -2.53296395	    -13.60156346	     -9.96158978	    -99.46608399	    -15.43773234	    -21.49368405	    -17.01833424	     -2.26302675	    -21.12342244	    -14.83271870	    -99.87882031	    -18.02543125	    -20.32774697	    -10.75625332	      4.20770034	      0.92876364	      5.81895208	     -6.74419845	      7.39527809	     -7.06936341	   -116.89818630	   -152.34419170	   -188.25894213	     89.50696172	    154.86353450	     11.93619047	     -3.66182186	     68.57203070	     72.11044094	     -7.44249305	      0.11707832	     82.32194002	    172.17489861	     10.09303769	      2.60411219	     69.26311857
      1.36000000	     -3.15926915	    -39.46009817	    -94.96879435	     -0.01531489	      1.15786981	      1.25744307	     -2.47641661	    -13.55166708	    -10.00787304	    -99.38298757	    -15.40829853	    -21.49564173	    -17.01806960	     -2.13134245	    -21.02357091	    -14.63189404	    -99.81694753	    -17.96094482	    -20.29945010	    -10.75041888	      3.86264758	      0.83244096	      5.97193541	     -6.90401458	      7.42652755	     -7.03561439	   -117.81696076	   -152.11518004	   -188.85806674	     90.36032778	    154.78428787	     11.89576676	     -3.72197986	     68.47807410	     71.48252829	     -7.35185626	      0.15204545	     83.36764141	    172.20361260	      9.96263514	      2.54310152	     69.20807895
      1.36250000	     -3.13961163	    -39.62339600	    -94.93319655	     -0.01543949	      1.16104292	      1.25596041	     -2.47137818	    -13.50781856	    -10.03467666	    -99.21610451	    -15.40433245	    -21.49316602	    -17.02638836	     -2.05367785	    -20.95606992	    -14.51902938	    -99.67125689	    -17.93868201	    -20.23044329	    -10.74907165	      3.70269174	      0.73082166	      6.02684101	     -6.96756933	      7.65902581	     -7.03721964	   -118.66278110	   -151.94604361	   -189.26545921	     91.01890650	    154.67761396	     11.87505832	     -3.79780709	     68.36171237	     70.87094249	     -7.32613079	      0.14763982	     83.96869483	    172.29120323	      9.89735059	      2.51940052	     69.12737662
